<svg xmlns="http://www.w3.org/2000/svg" width="200" height="200" viewBox="0 0 200 200">
<g>
<path d="M 1.32 88.39 C0.47,86.17 3.64,71.84 6.73,64.00 C19.03,32.74 45.42,10.09 78.50,2.37 C89.53,-0.21 110.47,-0.21 121.50,2.37 C159.30,11.19 188.06,39.40 197.05,76.50 C198.11,80.90 198.99,85.75 198.99,87.27 L 199.00 90.05 L 162.63 89.50 L 159.50 80.44 C155.68,69.43 150.90,62.01 142.62,54.26 C135.04,47.17 129.18,43.62 119.75,40.42 C113.85,38.41 110.69,38.00 101.03,38.00 C87.39,38.00 80.65,39.50 70.60,44.78 C55.06,52.94 43.50,67.93 39.00,85.75 L 37.92 90.00 L 19.93 90.00 C4.33,90.00 1.86,89.79 1.32,88.39 ZM 88.00 199.33 C71.43,196.72 58.03,191.75 45.31,183.48 C25.81,170.80 10.03,149.58 4.07,128.02 C2.93,123.91 2.00,120.42 2.00,120.27 C2.00,120.12 10.66,120.03 21.25,120.06 L 40.50 120.12 L 44.40 128.24 C49.47,138.80 60.27,149.95 70.50,155.19 C81.51,160.83 87.96,162.37 100.50,162.39 C110.21,162.41 112.51,162.06 120.04,159.40 C124.74,157.74 131.15,154.68 134.28,152.60 C142.67,147.03 152.08,136.36 156.39,127.53 L 160.06 120.00 L 198.04 120.00 L 197.40 122.75 C189.61,156.07 164.11,183.93 131.35,194.90 C119.06,199.01 98.99,201.06 88.00,199.33 ZM 68.81 139.25 C55.81,127.65 49.99,115.34 50.01,99.54 C50.05,77.16 65.62,57.24 87.54,51.53 C96.33,49.24 97.17,49.70 90.50,53.14 C73.48,61.93 66.76,74.83 73.95,84.92 C78.12,90.79 80.62,91.44 101.00,92.01 C117.45,92.47 120.02,92.77 124.19,94.76 C126.77,95.99 129.09,97.33 129.34,97.75 C129.60,98.16 124.48,98.34 117.96,98.15 C107.93,97.85 105.09,98.12 99.47,99.94 C87.64,103.76 80.54,109.57 76.18,118.99 C74.03,123.62 73.64,125.92 73.64,133.74 C73.64,138.83 73.49,143.00 73.32,143.00 C73.15,143.00 71.12,141.31 68.81,139.25 ZM 89.62 84.90 C81.78,82.74 79.36,74.49 84.92,68.92 C87.09,66.76 88.79,66.00 91.50,66.00 C99.86,66.00 104.28,76.59 98.25,82.17 C94.76,85.39 93.20,85.89 89.62,84.90 ZM 169.59 64.92 C172.62,68.53 173.54,68.71 175.23,66.00 C175.92,64.90 177.29,64.00 178.27,64.00 C180.44,64.00 181.43,61.79 180.62,58.75 C179.29,53.78 178.62,53.63 172.64,57.01 C169.54,58.76 167.00,60.56 167.00,61.02 C167.00,61.47 168.17,63.23 169.59,64.92 ZM 27.25 57.88 C35.81,61.17 37.03,60.35 32.45,54.34 C29.64,50.66 30.30,50.26 35.58,52.47 C38.67,53.76 39.16,53.76 39.66,52.46 C40.24,50.93 33.64,42.00 31.93,42.00 C30.29,42.00 30.92,43.32 34.25,46.84 C37.39,50.16 37.42,50.26 35.00,49.60 C29.78,48.18 26.00,47.77 26.04,48.62 C26.06,49.10 27.40,51.05 29.02,52.94 C30.64,54.83 31.79,56.54 31.59,56.75 C31.38,56.95 29.54,56.42 27.49,55.56 C23.19,53.76 22.00,53.63 22.00,54.93 C22.00,55.44 24.36,56.77 27.25,57.88 ZM 40.48 42.54 C41.84,45.63 43.37,47.89 43.88,47.57 C44.39,47.26 44.60,46.18 44.34,45.18 C43.73,42.85 46.40,40.61 48.99,41.29 C53.49,42.47 51.68,39.87 46.00,37.00 C37.36,32.64 36.49,33.52 40.48,42.54 ZM 95.75 23.40 C96.06,23.90 96.85,23.56 97.51,22.65 C99.02,20.59 103.59,20.49 104.36,22.50 C105.30,24.95 107.21,24.27 106.49,21.75 C104.40,14.53 102.59,10.93 101.16,11.21 C99.48,11.53 94.86,21.95 95.75,23.40 ZM 71.66 27.25 C72.87,29.24 74.10,27.73 73.50,25.00 C73.00,22.71 73.19,22.00 74.34,22.00 C75.16,22.00 76.49,21.75 77.29,21.44 C78.27,21.07 78.97,21.74 79.40,23.44 C79.75,24.85 80.48,26.00 81.02,26.00 C82.30,26.00 82.28,25.76 80.43,19.40 C78.85,13.98 76.33,11.73 77.26,16.58 C77.64,18.55 77.25,19.35 75.63,19.96 C73.29,20.85 71.00,19.57 71.00,17.38 C71.00,16.62 70.35,16.00 69.55,16.00 C68.31,16.00 68.32,16.72 69.66,21.25 C70.51,24.14 71.41,26.84 71.66,27.25 ZM 25.00 70.50 C25.00,72.58 26.63,72.37 29.00,70.00 C31.60,67.40 31.55,64.36 28.88,62.94 C27.14,62.01 26.24,62.18 23.92,63.90 C22.36,65.06 20.61,66.00 20.04,66.00 C18.49,66.00 18.78,64.02 20.42,63.39 C22.43,62.62 23.26,60.00 21.49,60.00 C19.53,60.00 16.81,64.34 17.55,66.28 C18.57,68.93 21.17,69.19 23.60,66.90 C24.89,65.69 26.57,65.01 27.43,65.34 C29.26,66.04 28.42,69.00 26.39,69.00 C25.63,69.00 25.00,69.68 25.00,70.50 ZM 163.19 54.96 C164.39,56.08 165.78,57.00 166.28,57.00 C167.59,57.00 176.00,50.80 176.00,49.83 C176.00,48.32 173.91,48.96 170.59,51.50 C166.75,54.43 165.71,54.57 163.91,52.39 C162.74,50.99 163.15,50.27 167.04,46.92 C170.06,44.30 170.95,43.05 169.78,43.03 C167.38,42.99 161.00,48.82 161.00,51.06 C161.00,52.09 161.98,53.84 163.19,54.96 ZM 32.15 153.40 C36.19,156.23 41.23,151.19 38.40,147.15 C36.59,144.58 34.32,144.40 31.83,146.65 C29.39,148.86 29.52,151.55 32.15,153.40 ZM 145.45 37.55 C147.98,40.07 151.40,40.77 152.50,39.00 C152.85,38.44 152.06,38.00 150.71,38.00 C149.39,38.00 147.59,37.20 146.70,36.22 C144.44,33.72 146.51,29.62 150.27,29.18 C152.43,28.93 153.20,29.41 153.97,31.43 C154.99,34.10 157.00,34.96 157.00,32.72 C157.00,29.83 153.88,27.00 150.69,27.02 C146.94,27.03 145.71,27.72 144.15,30.68 C142.51,33.81 142.69,34.78 145.45,37.55 ZM 101.05 185.56 C102.62,187.45 105.47,187.39 107.43,185.43 C110.64,182.22 108.13,177.63 103.45,178.16 C101.06,178.44 100.44,179.03 100.18,181.31 C100.00,182.86 100.39,184.77 101.05,185.56 ZM 51.54 37.07 C52.43,38.51 56.61,38.17 57.95,36.56 C58.61,35.76 59.01,34.07 58.83,32.81 C58.55,30.85 57.89,30.49 54.50,30.44 C51.72,30.39 50.50,29.93 50.50,28.94 C50.50,28.15 51.17,27.44 52.00,27.37 C52.83,27.29 53.93,27.18 54.45,27.12 C54.97,27.05 54.89,26.49 54.27,25.87 C52.64,24.24 48.24,25.65 47.48,28.05 C46.41,31.43 48.75,33.22 53.26,32.46 C56.72,31.87 57.15,32.01 56.83,33.65 C56.61,34.81 55.46,35.62 53.72,35.82 C52.21,35.99 51.23,36.56 51.54,37.07 ZM 45.00 164.25 L 45.00 166.90 L 47.50 164.59 C50.70,161.62 50.67,159.48 47.38,157.33 C45.06,155.81 44.63,155.78 43.63,157.12 C43.01,157.95 41.70,158.93 40.71,159.30 C37.86,160.37 37.43,157.23 40.05,154.45 C41.31,153.10 41.90,152.00 41.35,152.00 C39.48,152.00 35.73,156.86 36.35,158.47 C37.14,160.52 39.55,161.41 41.75,160.46 C44.68,159.20 48.30,159.42 48.80,160.89 C49.14,161.93 48.63,162.12 46.79,161.66 C45.30,161.29 43.57,161.62 42.41,162.49 C41.36,163.29 40.97,163.95 41.55,163.97 C42.13,163.99 43.14,163.46 43.80,162.80 C44.73,161.87 45.00,162.19 45.00,164.25 ZM 91.00 184.56 C91.00,185.97 91.40,186.87 91.89,186.57 C93.02,185.87 93.83,178.00 92.78,178.00 C92.35,178.00 92.00,178.68 92.00,179.50 C92.00,180.33 91.11,181.00 90.00,181.00 C88.68,181.00 88.00,180.33 88.00,179.05 C88.00,177.65 86.96,176.81 84.31,176.07 C80.57,175.04 78.55,175.49 80.77,176.86 C81.63,177.39 81.71,178.52 81.06,180.79 C80.54,182.60 80.52,184.21 81.02,184.51 C81.50,184.81 82.20,183.47 82.56,181.53 C83.52,176.41 85.96,176.90 86.14,182.25 C86.21,184.59 86.47,185.49 86.71,184.25 C87.34,180.94 91.00,181.20 91.00,184.56 ZM 87.20 21.00 L 89.36 25.50 L 90.02 21.00 C90.38,18.52 91.03,15.26 91.45,13.75 C91.95,11.96 91.84,11.00 91.13,11.00 C90.53,11.00 89.76,12.12 89.41,13.50 C88.65,16.52 87.44,16.68 85.77,14.00 C85.08,12.90 83.90,12.00 83.14,12.00 C82.04,12.00 82.09,12.46 83.40,14.25 C84.30,15.49 86.01,18.52 87.20,21.00 ZM 113.78 24.45 C114.70,25.37 116.00,23.90 116.00,21.94 C116.00,20.44 116.74,19.98 119.25,19.89 L 122.50 19.79 L 119.72 18.69 C115.79,17.14 116.54,14.40 120.78,14.81 C122.59,14.99 124.00,14.66 124.00,14.06 C124.00,13.11 122.86,12.86 117.29,12.58 C115.99,12.52 115.31,13.87 114.43,18.23 C113.80,21.38 113.51,24.18 113.78,24.45 ZM 62.69 27.06 C63.89,29.78 65.35,32.00 65.94,32.00 C67.50,32.00 67.25,30.57 64.80,25.53 C62.63,21.06 62.63,20.99 64.55,19.54 C67.43,17.36 64.59,17.66 59.96,20.02 C55.58,22.25 54.77,23.52 58.25,22.67 C60.17,22.20 60.82,22.84 62.69,27.06 ZM 152.53 163.04 C154.10,164.67 155.83,166.00 156.39,166.00 C156.97,166.00 156.89,165.49 156.20,164.80 C154.31,162.91 154.78,162.25 157.75,162.64 C159.26,162.84 159.91,162.73 159.19,162.40 C158.46,162.06 157.46,160.71 156.96,159.40 C155.92,156.66 152.88,156.23 150.97,158.54 C149.90,159.82 150.16,160.56 152.53,163.04 ZM 131.00 28.96 C131.00,31.50 132.96,29.61 134.65,25.44 C136.20,21.64 136.87,20.96 138.75,21.31 C142.21,21.95 141.41,20.07 137.53,18.45 C133.11,16.60 130.88,16.60 133.32,18.44 C135.07,19.77 135.06,19.97 133.07,23.87 C131.93,26.10 131.00,28.39 131.00,28.96 ZM 118.59 183.80 C119.24,185.24 119.41,185.15 119.76,183.17 C120.14,180.93 120.24,180.91 122.08,182.57 C123.14,183.53 124.00,183.82 124.00,183.21 C124.00,182.61 123.61,181.88 123.13,181.58 C122.66,181.29 122.48,179.96 122.73,178.64 C123.26,175.83 121.81,174.61 118.99,175.50 C116.95,176.15 116.15,180.00 118.06,180.00 C118.64,180.00 118.83,180.47 118.47,181.05 C118.11,181.62 118.17,182.86 118.59,183.80 ZM 154.84 45.71 C158.35,48.63 159.93,48.62 157.18,45.69 L 155.02 43.39 L 159.01 39.49 C161.69,36.87 162.67,35.27 161.99,34.59 C161.31,33.91 159.54,35.20 156.58,38.54 L 152.19 43.50 ZM 68.59 179.39 C69.77,182.46 71.00,180.98 71.00,176.50 C71.00,174.02 70.63,172.00 70.19,172.00 C69.27,172.00 64.00,177.29 64.00,178.21 C64.00,178.54 64.89,178.58 65.99,178.29 C67.25,177.96 68.20,178.36 68.59,179.39 ZM 95.94 112.88 C95.04,111.21 95.12,110.45 96.32,109.25 C99.19,106.38 103.58,110.40 100.99,113.51 C99.25,115.61 97.26,115.36 95.94,112.88 ZM 106.49 110.62 C104.26,108.98 104.95,105.58 107.60,105.20 C110.10,104.84 112.26,107.15 111.44,109.30 C110.59,111.50 108.47,112.07 106.49,110.62 ZM 105.84 185.12 C103.98,186.30 103.42,186.21 102.04,184.55 C100.21,182.34 101.72,178.82 104.34,179.19 C106.86,179.55 107.93,183.79 105.84,185.12 ZM 110.65 185.24 C111.40,186.46 114.66,186.11 115.84,184.69 C116.51,183.88 116.66,181.85 116.23,179.44 L 115.53 175.50 L 115.01 180.00 C114.41,185.33 111.70,186.38 111.17,181.50 C110.99,179.85 110.38,178.05 109.80,177.50 C109.08,176.81 108.98,177.73 109.47,180.49 C109.86,182.69 110.39,184.83 110.65,185.24 ZM 123.63 27.21 C124.57,28.73 125.65,26.93 127.34,21.04 C128.88,15.67 128.80,13.72 127.12,15.57 C125.71,17.11 122.99,26.18 123.63,27.21 ZM 36.99 151.51 C35.40,153.43 33.10,153.42 32.36,151.50 C31.46,149.16 32.73,147.00 35.00,147.00 C37.54,147.00 38.65,149.51 36.99,151.51 ZM 136.00 176.42 C136.00,177.96 136.43,178.85 137.00,178.50 C137.55,178.16 138.00,177.28 138.00,176.53 C138.00,175.65 138.77,175.37 140.25,175.71 L 142.50 176.23 L 140.25 174.56 C138.99,173.62 137.94,171.71 137.86,170.19 C137.74,167.77 137.68,167.73 137.29,169.79 C136.94,171.60 136.38,171.96 134.67,171.49 C132.66,170.94 132.63,171.00 134.25,172.31 C135.21,173.09 136.00,174.93 136.00,176.42 ZM 115.33 108.42 C115.00,107.55 115.46,106.11 116.36,105.21 C117.84,103.74 118.15,103.73 119.54,105.11 C120.41,105.98 120.79,107.37 120.43,108.32 C119.62,110.44 116.13,110.51 115.33,108.42 ZM 88.38 118.55 C87.62,116.56 88.75,115.00 90.95,115.00 C92.92,115.00 93.98,116.72 93.27,118.75 C92.67,120.47 89.06,120.33 88.38,118.55 ZM 28.42 142.49 C26.75,144.30 26.43,145.05 27.50,144.64 C28.42,144.29 30.48,144.00 32.08,144.00 C33.69,144.00 35.00,143.55 35.00,143.00 C35.00,142.45 34.08,142.00 32.96,142.00 C31.24,142.00 31.09,141.70 32.00,140.00 C32.73,138.64 32.74,138.00 32.04,138.00 C31.47,138.00 31.00,138.38 31.00,138.85 C31.00,139.32 29.84,140.96 28.42,142.49 ZM 169.50 145.62 C171.27,146.92 174.00,147.50 174.00,146.58 C174.00,146.35 174.29,145.34 174.65,144.33 C175.18,142.83 175.05,142.73 173.95,143.75 C171.94,145.61 170.70,145.26 171.29,143.00 C171.92,140.58 171.38,140.48 169.24,142.62 C167.74,144.12 167.76,144.35 169.50,145.62 ZM 74.25 182.97 C75.49,183.47 76.61,183.90 76.75,183.94 C76.89,183.97 77.00,183.55 77.00,183.00 C77.00,182.45 76.32,182.00 75.50,182.00 C73.77,182.00 73.59,180.20 74.98,176.57 C75.51,175.15 75.56,174.00 75.07,174.00 C74.25,174.00 72.00,179.25 72.00,181.18 C72.00,181.67 73.01,182.47 74.25,182.97 ZM 174.44 64.09 C173.57,65.50 171.00,65.16 170.38,63.55 C169.68,61.73 170.70,60.00 172.45,60.00 C173.97,60.00 175.29,62.72 174.44,64.09 ZM 179.00 60.06 C179.00,62.40 176.19,62.66 175.32,60.40 C174.69,58.75 176.78,56.74 178.20,57.62 C178.64,57.90 179.00,58.99 179.00,60.06 ZM 44.80 38.85 C45.84,39.52 45.80,39.92 44.62,40.90 C43.41,41.90 42.94,41.75 42.03,40.06 C40.84,37.83 42.23,37.22 44.80,38.85 ZM 103.00 18.58 C103.00,18.81 102.32,19.00 101.50,19.00 C100.67,19.00 100.00,18.11 100.00,17.00 C100.00,14.62 101.54,14.35 102.39,16.58 C102.73,17.45 103.00,18.35 103.00,18.58 ZM 127.11 108.63 C126.22,107.56 126.20,106.99 127.04,106.48 C128.67,105.47 130.69,107.71 129.36,109.04 C128.63,109.77 127.95,109.64 127.11,108.63 ZM 83.46 125.93 C82.54,124.44 83.61,123.63 85.52,124.37 C86.40,124.71 86.85,125.44 86.50,125.99 C85.69,127.30 84.29,127.28 83.46,125.93 ZM 155.00 159.94 C155.00,161.20 153.44,162.11 152.64,161.31 C151.51,160.18 151.95,159.00 153.50,159.00 C154.32,159.00 155.00,159.42 155.00,159.94 ZM 121.77 178.19 C121.15,180.04 119.00,180.35 119.00,178.58 C119.00,177.71 119.71,177.00 120.58,177.00 C121.45,177.00 121.99,177.53 121.77,178.19 Z" fill="rgba(7,97,155,1)"/>
<path d="M 89.00 148.87 C81.69,146.88 80.50,146.05 79.24,141.99 C78.56,139.81 78.00,136.89 78.00,135.50 L 78.00 132.97 L 82.02 135.51 C98.06,145.64 125.95,140.27 136.47,125.03 C146.44,110.58 145.72,86.53 134.89,72.87 C131.79,68.95 129.00,67.80 129.00,70.44 C129.00,71.23 129.46,72.17 130.02,72.51 C133.03,74.37 140.02,93.38 138.32,95.08 C136.98,96.42 130.47,94.27 127.00,91.34 C123.19,88.14 122.02,85.88 118.14,74.27 C114.95,64.74 111.63,58.50 107.20,53.76 C105.80,52.25 104.84,50.83 105.07,50.59 C106.05,49.61 115.59,52.18 121.57,55.03 C129.08,58.62 138.75,67.19 142.50,73.59 C148.73,84.22 151.47,99.59 149.01,110.10 C146.80,119.49 139.78,131.78 133.50,137.24 C124.39,145.16 111.54,150.04 100.15,149.91 C95.94,149.86 90.93,149.39 89.00,148.87 Z" fill="rgba(106,186,74,1)"/>
<path d="M 32.15 153.40 C29.52,151.55 29.39,148.86 31.83,146.65 C34.32,144.40 36.59,144.58 38.40,147.15 C41.23,151.19 36.19,156.23 32.15,153.40 ZM 101.05 185.56 C100.39,184.77 100.00,182.86 100.18,181.31 C100.44,179.03 101.06,178.44 103.45,178.16 C108.13,177.63 110.64,182.22 107.43,185.43 C105.47,187.39 102.62,187.45 101.05,185.56 ZM 45.00 164.25 C45.00,162.19 44.73,161.87 43.80,162.80 C43.14,163.46 42.13,163.99 41.55,163.97 C40.97,163.95 41.36,163.29 42.41,162.49 C43.57,161.62 45.30,161.29 46.79,161.66 C48.63,162.12 49.14,161.93 48.80,160.89 C48.30,159.42 44.68,159.20 41.75,160.46 C39.55,161.41 37.14,160.52 36.35,158.47 C35.73,156.86 39.48,152.00 41.35,152.00 C41.90,152.00 41.31,153.10 40.05,154.45 C37.43,157.23 37.86,160.37 40.71,159.30 C41.70,158.93 43.01,157.95 43.63,157.12 C44.63,155.78 45.06,155.81 47.38,157.33 C50.67,159.48 50.70,161.62 47.50,164.59 L 45.00 166.90 ZM 91.00 184.56 C91.00,181.20 87.34,180.94 86.71,184.25 C86.47,185.49 86.21,184.59 86.14,182.25 C85.96,176.90 83.52,176.41 82.56,181.53 C82.20,183.47 81.50,184.81 81.02,184.51 C80.52,184.21 80.54,182.60 81.06,180.79 C81.71,178.52 81.63,177.39 80.77,176.86 C78.55,175.49 80.57,175.04 84.31,176.07 C86.96,176.81 88.00,177.65 88.00,179.05 C88.00,180.33 88.68,181.00 90.00,181.00 C91.11,181.00 92.00,180.33 92.00,179.50 C92.00,178.68 92.35,178.00 92.78,178.00 C93.83,178.00 93.02,185.87 91.89,186.57 C91.40,186.87 91.00,185.97 91.00,184.56 ZM 152.53 163.04 C150.16,160.56 149.90,159.82 150.97,158.54 C152.88,156.23 155.92,156.66 156.96,159.40 C157.46,160.71 158.46,162.06 159.19,162.40 C159.91,162.73 159.26,162.84 157.75,162.64 C154.78,162.25 154.31,162.91 156.20,164.80 C156.89,165.49 156.97,166.00 156.39,166.00 C155.83,166.00 154.10,164.67 152.53,163.04 ZM 118.59 183.80 C118.17,182.86 118.11,181.62 118.47,181.05 C118.83,180.47 118.64,180.00 118.06,180.00 C116.15,180.00 116.95,176.15 118.99,175.50 C121.81,174.61 123.26,175.83 122.73,178.64 C122.48,179.96 122.66,181.29 123.13,181.58 C123.61,181.88 124.00,182.61 124.00,183.21 C124.00,183.82 123.14,183.53 122.08,182.57 C120.24,180.91 120.14,180.93 119.76,183.17 C119.41,185.15 119.24,185.24 118.59,183.80 ZM 68.59 179.39 C68.20,178.36 67.25,177.96 65.99,178.29 C64.89,178.58 64.00,178.54 64.00,178.21 C64.00,177.29 69.27,172.00 70.19,172.00 C70.63,172.00 71.00,174.02 71.00,176.50 C71.00,180.98 69.77,182.46 68.59,179.39 ZM 105.84 185.12 C107.93,183.79 106.86,179.55 104.34,179.19 C101.72,178.82 100.21,182.34 102.04,184.55 C103.42,186.21 103.98,186.30 105.84,185.12 ZM 110.65 185.24 C110.39,184.83 109.86,182.69 109.47,180.49 C108.98,177.73 109.08,176.81 109.80,177.50 C110.38,178.05 110.99,179.85 111.17,181.50 C111.70,186.38 114.41,185.33 115.01,180.00 L 115.53 175.50 L 116.23 179.44 C116.66,181.85 116.51,183.88 115.84,184.69 C114.66,186.11 111.40,186.46 110.65,185.24 ZM 36.99 151.51 C38.65,149.51 37.54,147.00 35.00,147.00 C32.73,147.00 31.46,149.16 32.36,151.50 C33.10,153.42 35.40,153.43 36.99,151.51 ZM 136.00 176.42 C136.00,174.93 135.21,173.09 134.25,172.31 C132.63,171.00 132.66,170.94 134.67,171.49 C136.38,171.96 136.94,171.60 137.29,169.79 C137.68,167.73 137.74,167.77 137.86,170.19 C137.94,171.71 138.99,173.62 140.25,174.56 L 142.50 176.23 L 140.25 175.71 C138.77,175.37 138.00,175.65 138.00,176.53 C138.00,177.28 137.55,178.16 137.00,178.50 C136.43,178.85 136.00,177.96 136.00,176.42 ZM 28.42 142.49 C29.84,140.96 31.00,139.32 31.00,138.85 C31.00,138.38 31.47,138.00 32.04,138.00 C32.74,138.00 32.73,138.64 32.00,140.00 C31.09,141.70 31.24,142.00 32.96,142.00 C34.08,142.00 35.00,142.45 35.00,143.00 C35.00,143.55 33.69,144.00 32.08,144.00 C30.48,144.00 28.42,144.29 27.50,144.64 C26.43,145.05 26.75,144.30 28.42,142.49 ZM 169.50 145.62 C167.76,144.35 167.74,144.12 169.24,142.62 C171.38,140.48 171.92,140.58 171.29,143.00 C170.70,145.26 171.94,145.61 173.95,143.75 C175.05,142.73 175.18,142.83 174.65,144.33 C174.29,145.34 174.00,146.35 174.00,146.58 C174.00,147.50 171.27,146.92 169.50,145.62 ZM 74.25 182.97 C73.01,182.47 72.00,181.67 72.00,181.18 C72.00,179.25 74.25,174.00 75.07,174.00 C75.56,174.00 75.51,175.15 74.98,176.57 C73.59,180.20 73.77,182.00 75.50,182.00 C76.32,182.00 77.00,182.45 77.00,183.00 C77.00,183.55 76.89,183.97 76.75,183.94 C76.61,183.90 75.49,183.47 74.25,182.97 ZM 155.00 159.94 C155.00,159.42 154.32,159.00 153.50,159.00 C151.95,159.00 151.51,160.18 152.64,161.31 C153.44,162.11 155.00,161.20 155.00,159.94 ZM 121.77 178.19 C121.99,177.53 121.45,177.00 120.58,177.00 C119.71,177.00 119.00,177.71 119.00,178.58 C119.00,180.35 121.15,180.04 121.77,178.19 Z" fill="rgba(147,198,218,1)"/>
<path d="M 25.00 70.50 C25.00,69.68 25.63,69.00 26.39,69.00 C28.42,69.00 29.26,66.04 27.43,65.34 C26.57,65.01 24.89,65.69 23.60,66.90 C21.17,69.19 18.57,68.93 17.55,66.28 C16.81,64.34 19.53,60.00 21.49,60.00 C23.26,60.00 22.43,62.62 20.42,63.39 C18.78,64.02 18.49,66.00 20.04,66.00 C20.61,66.00 22.36,65.06 23.92,63.90 C26.24,62.18 27.14,62.01 28.88,62.94 C31.55,64.36 31.60,67.40 29.00,70.00 C26.63,72.37 25.00,72.58 25.00,70.50 ZM 169.59 64.92 C168.17,63.23 167.00,61.47 167.00,61.02 C167.00,60.56 169.54,58.76 172.64,57.01 C178.62,53.63 179.29,53.78 180.62,58.75 C181.43,61.79 180.44,64.00 178.27,64.00 C177.29,64.00 175.92,64.90 175.23,66.00 C173.54,68.71 172.62,68.53 169.59,64.92 ZM 174.44 64.09 C175.29,62.72 173.97,60.00 172.45,60.00 C170.70,60.00 169.68,61.73 170.38,63.55 C171.00,65.16 173.57,65.50 174.44,64.09 ZM 179.00 60.06 C179.00,58.99 178.64,57.90 178.20,57.62 C176.78,56.74 174.69,58.75 175.32,60.40 C176.19,62.66 179.00,62.40 179.00,60.06 ZM 27.25 57.88 C24.36,56.77 22.00,55.44 22.00,54.93 C22.00,53.63 23.19,53.76 27.49,55.56 C29.54,56.42 31.38,56.95 31.59,56.75 C31.79,56.54 30.64,54.83 29.02,52.94 C27.40,51.05 26.06,49.10 26.04,48.62 C26.00,47.77 29.78,48.18 35.00,49.60 C37.42,50.26 37.39,50.16 34.25,46.84 C30.92,43.32 30.29,42.00 31.93,42.00 C33.64,42.00 40.24,50.93 39.66,52.46 C39.16,53.76 38.67,53.76 35.58,52.47 C30.30,50.26 29.64,50.66 32.45,54.34 C37.03,60.35 35.81,61.17 27.25,57.88 ZM 163.19 54.96 C161.98,53.84 161.00,52.09 161.00,51.06 C161.00,48.82 167.38,42.99 169.78,43.03 C170.95,43.05 170.06,44.30 167.04,46.92 C163.15,50.27 162.74,50.99 163.91,52.39 C165.71,54.57 166.75,54.43 170.59,51.50 C173.91,48.96 176.00,48.32 176.00,49.83 C176.00,50.80 167.59,57.00 166.28,57.00 C165.78,57.00 164.39,56.08 163.19,54.96 ZM 40.48 42.54 C36.49,33.52 37.36,32.64 46.00,37.00 C51.68,39.87 53.49,42.47 48.99,41.29 C46.40,40.61 43.73,42.85 44.34,45.18 C44.60,46.18 44.39,47.26 43.88,47.57 C43.37,47.89 41.84,45.63 40.48,42.54 ZM 44.80 38.85 C42.23,37.22 40.84,37.83 42.03,40.06 C42.94,41.75 43.41,41.90 44.62,40.90 C45.80,39.92 45.84,39.52 44.80,38.85 ZM 154.84 45.71 L 152.19 43.50 L 156.58 38.54 C159.54,35.20 161.31,33.91 161.99,34.59 C162.67,35.27 161.69,36.87 159.01,39.49 L 155.02 43.39 L 157.18 45.69 C159.93,48.62 158.35,48.63 154.84,45.71 ZM 145.45 37.55 C142.69,34.78 142.51,33.81 144.15,30.68 C145.71,27.72 146.94,27.03 150.69,27.02 C153.88,27.00 157.00,29.83 157.00,32.72 C157.00,34.96 154.99,34.10 153.97,31.43 C153.20,29.41 152.43,28.93 150.27,29.18 C146.51,29.62 144.44,33.72 146.70,36.22 C147.59,37.20 149.39,38.00 150.71,38.00 C152.06,38.00 152.85,38.44 152.50,39.00 C151.40,40.77 147.98,40.07 145.45,37.55 ZM 51.54 37.07 C51.23,36.56 52.21,35.99 53.72,35.82 C55.46,35.62 56.61,34.81 56.83,33.65 C57.15,32.01 56.72,31.87 53.26,32.46 C48.75,33.22 46.41,31.43 47.48,28.05 C48.24,25.65 52.64,24.24 54.27,25.87 C54.89,26.49 54.97,27.05 54.45,27.12 C53.93,27.18 52.83,27.29 52.00,27.37 C51.17,27.44 50.50,28.15 50.50,28.94 C50.50,29.93 51.72,30.39 54.50,30.44 C57.89,30.49 58.55,30.85 58.83,32.81 C59.01,34.07 58.61,35.76 57.95,36.56 C56.61,38.17 52.43,38.51 51.54,37.07 ZM 62.69 27.06 C60.82,22.84 60.17,22.20 58.25,22.67 C54.77,23.52 55.58,22.25 59.96,20.02 C64.59,17.66 67.43,17.36 64.55,19.54 C62.63,20.99 62.63,21.06 64.80,25.53 C67.25,30.57 67.50,32.00 65.94,32.00 C65.35,32.00 63.89,29.78 62.69,27.06 ZM 131.00 28.96 C131.00,28.39 131.93,26.10 133.07,23.87 C135.06,19.97 135.07,19.77 133.32,18.44 C130.88,16.60 133.11,16.60 137.53,18.45 C141.41,20.07 142.21,21.95 138.75,21.31 C136.87,20.96 136.20,21.64 134.65,25.44 C132.96,29.61 131.00,31.50 131.00,28.96 ZM 71.66 27.25 C71.41,26.84 70.51,24.14 69.66,21.25 C68.32,16.72 68.31,16.00 69.55,16.00 C70.35,16.00 71.00,16.62 71.00,17.38 C71.00,19.57 73.29,20.85 75.63,19.96 C77.25,19.35 77.64,18.55 77.26,16.58 C76.33,11.73 78.85,13.98 80.43,19.40 C82.28,25.76 82.30,26.00 81.02,26.00 C80.48,26.00 79.75,24.85 79.40,23.44 C78.97,21.74 78.27,21.07 77.29,21.44 C76.49,21.75 75.16,22.00 74.34,22.00 C73.19,22.00 73.00,22.71 73.50,25.00 C74.10,27.73 72.87,29.24 71.66,27.25 ZM 123.63 27.21 C122.99,26.18 125.71,17.11 127.12,15.57 C128.80,13.72 128.88,15.67 127.34,21.04 C125.65,26.93 124.57,28.73 123.63,27.21 ZM 87.20 21.00 C86.01,18.52 84.30,15.49 83.40,14.25 C82.09,12.46 82.04,12.00 83.14,12.00 C83.90,12.00 85.08,12.90 85.77,14.00 C87.44,16.68 88.65,16.52 89.41,13.50 C89.76,12.12 90.53,11.00 91.13,11.00 C91.84,11.00 91.95,11.96 91.45,13.75 C91.03,15.26 90.38,18.52 90.02,21.00 L 89.36 25.50 L 87.20 21.00 ZM 113.78 24.45 C113.51,24.18 113.80,21.38 114.43,18.23 C115.31,13.87 115.99,12.52 117.29,12.58 C122.86,12.86 124.00,13.11 124.00,14.06 C124.00,14.66 122.59,14.99 120.78,14.81 C116.54,14.40 115.79,17.14 119.72,18.69 L 122.50 19.79 L 119.25 19.89 C116.74,19.98 116.00,20.44 116.00,21.94 C116.00,23.90 114.70,25.37 113.78,24.45 ZM 95.75 23.40 C94.86,21.95 99.48,11.53 101.16,11.21 C102.59,10.93 104.40,14.53 106.49,21.75 C107.21,24.27 105.30,24.95 104.36,22.50 C103.59,20.49 99.02,20.59 97.51,22.65 C96.85,23.56 96.06,23.90 95.75,23.40 ZM 103.00 18.58 C103.00,18.35 102.73,17.45 102.39,16.58 C101.54,14.35 100.00,14.62 100.00,17.00 C100.00,18.11 100.67,19.00 101.50,19.00 C102.32,19.00 103.00,18.81 103.00,18.58 Z" fill="rgba(252,254,254,1)"/>
</g>
</svg>