<svg xmlns="http://www.w3.org/2000/svg" viewBox="0 0 220 220" role="img" aria-labelledby="sealTitle">
  <title id="sealTitle">Swasthya Fit Club seal — Your Health, Our Expertise</title>
  <defs>
    <path id="sealCurveTop" d="M 20,110 A 90,90 0 0 1 200,110" />
    <path id="sealCurveBottom" d="M 200,110 A 90,90 0 0 1 20,110" />
  </defs>
  <circle cx="110" cy="110" r="108" fill="#f8f6ee" stroke="#16385c" stroke-width="2"/>
  <circle cx="110" cy="110" r="96" fill="none" stroke="#16385c" stroke-width="1.5"/>
  <circle cx="110" cy="110" r="60" fill="#16385c"/>
  <circle cx="110" cy="110" r="46" fill="#ffffff"/>
  <path d="M110 78c-13 6-21.5 16.8-21.5 28.8C88.5 119 98 129 110 129s21.5-10 21.5-22.2C131.5 94.8 123 84 110 78z" fill="#257e56"/>
  <path d="M99 112c4.4-6.6 7.8-6.6 11 0 3.2 6.6 6.6 6.6 11 0" fill="none" stroke="#ffffff" stroke-width="2" stroke-linecap="round"/>
  <text font-family="Manrope, sans-serif" font-size="11.5" font-weight="700" letter-spacing="2.4" fill="#16385c">
    <textPath href="#sealCurveTop" startOffset="50%" text-anchor="middle">SWASTHYA FIT CLUB</textPath>
  </text>
  <text font-family="Manrope, sans-serif" font-size="8.5" font-weight="700" letter-spacing="1.6" fill="#257e56">
    <textPath href="#sealCurveBottom" startOffset="50%" text-anchor="middle">YOUR HEALTH · OUR EXPERTISE</textPath>
  </text>
</svg>
