<svg xmlns="http://www.w3.org/2000/svg" viewBox="0 0 64 64" role="img" aria-hidden="true">
  <circle cx="32" cy="32" r="31" fill="#ffffff" stroke="#16385c" stroke-width="2"/>
  <circle cx="32" cy="32" r="25" fill="none" stroke="#257e56" stroke-width="2"/>
  <path d="M32 14c-8.5 4-14 10.8-14 18.6C18 41.4 24.3 48 32 48s14-6.6 14-15.4C46 24.8 40.5 18 32 14z" fill="#16385c"/>
  <path d="M32 22c-5.2 3-8.6 7.4-8.6 12.4 0 5.6 3.9 10 8.6 10s8.6-4.4 8.6-10C40.6 29.4 37.2 25 32 22z" fill="#ffffff"/>
  <path d="M25 34c2.8-4.6 5-4.6 7-2 2 2.6 4.4 2.6 7-2" fill="none" stroke="#2f9367" stroke-width="2.2" stroke-linecap="round"/>
</svg>
